<?xml version="1.0" encoding="utf-8"?>
<!-- Generator: Adobe Illustrator 24.0.1, SVG Export Plug-In . SVG Version: 6.00 Build 0)  -->
<svg version="1.1" id="Layer_1" xmlns="http://www.w3.org/2000/svg" xmlns:xlink="http://www.w3.org/1999/xlink" x="0px" y="0px"
	 viewBox="0 0 1417.3 1417.3" style="enable-background:new 0 0 1417.3 1417.3;" xml:space="preserve">
<style type="text/css">
	.st0{fill-rule:evenodd;clip-rule:evenodd;fill:#ECB460;}
	.st1{fill-rule:evenodd;clip-rule:evenodd;fill:#D76935;}
	.st2{fill-rule:evenodd;clip-rule:evenodd;fill:#D33D41;}
	.st3{fill-rule:evenodd;clip-rule:evenodd;fill:#B6CB45;}
	.st4{fill-rule:evenodd;clip-rule:evenodd;fill:#66AD48;}
	.st5{fill-rule:evenodd;clip-rule:evenodd;fill:#AFD7DC;}
	.st6{fill-rule:evenodd;clip-rule:evenodd;fill:#5AB1CF;}
	.st7{fill-rule:evenodd;clip-rule:evenodd;fill:#26A8C3;}
	.st8{fill:none;}
	.st9{fill-rule:evenodd;clip-rule:evenodd;fill:#1C1B19;}
	.st10{fill-rule:evenodd;clip-rule:evenodd;fill:#FFFFFF;}
</style>
<g id="Group-2">
	<path id="Fill-1" class="st0" d="M1416.5,708.9c0,391.2-317.1,708.2-708.2,708.2C317.1,1417.2,0,1100.1,0,708.9
		C0,317.8,317.1,0.7,708.2,0.7C1099.4,0.7,1416.5,317.8,1416.5,708.9"/>
	<path id="Fill-2" class="st1" d="M1227.6,638.1c0,352-274.8,637.4-613.8,637.4C274.8,1275.5,0,990.1,0,638.1S274.8,0.7,613.8,0.7
		C952.8,0.7,1227.6,286.1,1227.6,638.1"/>
	<path id="Fill-3" class="st2" d="M1274.8,567.3c0,312.9-243.1,566.6-543,566.6c-299.9,0-543-253.7-543-566.6
		c0-312.9,243.1-566.6,543-566.6C1031.7,0.7,1274.8,254.4,1274.8,567.3"/>
	<path id="Fill-4" class="st3" d="M1227.6,614.5c0,286.8-222,519.4-495.8,519.4S236.1,901.3,236.1,614.5
		c0-286.9,222-519.4,495.8-519.4S1227.6,327.7,1227.6,614.5"/>
	<path id="Fill-5" class="st4" d="M1180.4,661.7c0,260.8-211.4,472.2-472.2,472.2c-260.7,0-472.1-211.4-472.1-472.2
		s211.4-472.1,472.1-472.1C969,189.6,1180.4,401,1180.4,661.7"/>
	<path id="Fill-6" class="st5" d="M991.5,567.3c0,208.6-169.1,377.7-377.7,377.7c-208.6,0-377.7-169.1-377.7-377.7
		s169.1-377.7,377.7-377.7C822.4,189.6,991.5,358.7,991.5,567.3"/>
	<path id="Fill-7" class="st6" d="M1038.7,520.1c0,182.5-148,330.5-330.5,330.5s-330.5-148-330.5-330.5
		c0-182.5,148-330.5,330.5-330.5S1038.7,337.5,1038.7,520.1"/>
	<path id="Fill-8" class="st7" d="M1038.7,543.7c0,169.5-126.8,306.9-283.3,306.9S472.2,713.2,472.2,543.7
		c0-169.5,126.8-306.9,283.3-306.9S1038.7,374.2,1038.7,543.7"/>
	<path id="Fill-9" class="st8" d="M944.3,590.9c0,143.4-105.7,259.7-236.1,259.7c-130.4,0-236.1-116.3-236.1-259.7
		s105.7-259.7,236.1-259.7C838.6,331.2,944.3,447.5,944.3,590.9"/>
	<path id="Fill-11" class="st9" d="M708.2,850.6c-130.4,0-236.1-116.3-236.1-259.7s105.7-259.7,236.1-259.7
		c130.4,0,236.1,116.3,236.1,259.7S838.6,850.6,708.2,850.6z"/>
	<path id="Fill-12" class="st10" d="M837,516c-22.5,37.6-66.6,59.3-98.6,48.5c-32-10.8-39.8-50-17.3-87.6
		c22.5-37.6,66.6-59.3,98.6-48.5C851.7,439.2,859.5,478.4,837,516"/>
</g>
</svg>
